# xmcd CD database file
#
# Track frame offsets:
#	150
#	14980
#	32287
#	47175
#
# Disc length: 825 seconds
#
# Revision: 2
# Processed by: cddbd v1.5.1PL2 Copyright (c) Steve Scherf et al.
# Submitted via: CDex 1.51
#
DISCID=2d033704
DTITLE=三枝夕夏 IN db - 君の愛に包まれて痛い
DYEAR=2005
DGENRE=JPop
TTITLE0=君の愛に包まれて痛い
TTITLE1=CaNDY LiFe
TTITLE2=へこんだ気持ち 溶かすキミ -U-ka's名古屋弁ver.-
TTITLE3=君の愛に包まれて痛い 〜Instrumental〜
EXTD=YEAR: 2005
EXTT0=
EXTT1=
EXTT2=
EXTT3=
PLAYORDER=
